PathFileType	4	(X/Y/Z)	C:\Users\WrightLab\Desktop\Jo\P3_26.trc
DataRate	CameraRate	NumFrames	NumMarkers	Units	OrigDataRate	OrigDataStartFrame	OrigNumFrames
100.00	100.00	       14	19	mm	100.00	80	       638
Frame#	Time	Headset_Front			Headset_Back			Headset_Left			Headset_Right			Left_Shoulder			Right_Shoulder			Sternum			C7			Left Elbow			Right Elbow			Left Wrist			Right Wrist			Left ASIS			Right ASIS			S2			Left Knee			Right Knee			Left Ankle			Right Ankle			
		X1	Y1	Z1	X2	Y2	Z2	X3	Y3	Z3	X4	Y4	Z4	X5	Y5	Z5	X6	Y6	Z6	X7	Y7	Z7	X8	Y8	Z8	X9	Y9	Z9	X10	Y10	Z10	X11	Y11	Z11	X12	Y12	Z12	X13	Y13	Z13	X14	Y14	Z14	X15	Y15	Z15	X16	Y16	Z16	X17	Y17	Z17	X18	Y18	Z18	X19	Y19	Z19	

80	0.790				-466.35895	1441.66626	-1225.93384							-280.39349	1277.27478	-1415.29395	-634.32697	1270.06335	-1500.46826							-208.04033	943.27655	-1413.25403				-254.96169	754.66046	-1334.88464	-730.06683	734.62457	-1426.96594	-367.72678	785.70813	-1366.46912										-647.35730	416.14532	-1320.11768				-672.69354	81.17361	-1281.99878	
81	0.800				-470.33069	1441.97583	-1220.09497							-283.64102	1277.24463	-1409.29785	-637.88812	1270.04126	-1494.77856							-210.34885	944.43964	-1407.28625				-257.80341	756.14984	-1326.43250	-732.93335	735.96655	-1418.91431	-371.28189	785.21631	-1360.76367										-650.97034	415.61166	-1312.93921				-672.67792	80.04545	-1280.55469	
82	0.810				-474.44821	1442.38513	-1214.10168							-287.82584	1278.56763	-1406.05432	-641.50311	1270.42896	-1489.91272							-214.28036	946.17523	-1402.53979				-261.82114	756.83838	-1317.67273	-736.76355	736.05780	-1413.70520	-374.39578	785.45917	-1350.99316										-652.49249	414.46738	-1304.90637				-672.86029	78.02055	-1279.72803	
83	0.820				-478.52670	1443.11731	-1207.80603							-291.63016	1278.71875	-1399.69812	-645.19305	1268.89624	-1480.38696							-217.30470	945.56036	-1393.09509				-265.47623	757.42834	-1311.53113	-740.72833	736.88672	-1402.07263	-377.31418	785.48981	-1344.01501							-337.08276	377.14932	-1509.03845	-654.94299	415.04990	-1297.85730				-674.24371	77.35155	-1272.19580	
84	0.830				-482.70605	1443.90771	-1201.55347							-295.92706	1278.44519	-1391.56458	-649.56342	1270.26050	-1476.36462							-220.10075	946.48486	-1386.37000				-267.87885	758.03558	-1302.18921	-745.96997	738.11676	-1393.37451	-382.65964	785.63660	-1335.38586							-340.40027	378.91711	-1499.01599	-657.48383	415.10638	-1289.93042				-674.85834	76.71744	-1270.90698	
85	0.840				-487.05347	1444.56848	-1195.25940							-299.74908	1278.73621	-1384.67322	-653.43689	1270.65137	-1470.38464							-223.82837	947.73853	-1379.80664				-271.07437	759.87036	-1295.24146	-748.04828	738.30743	-1382.29712	-387.44482	787.16266	-1326.45642							-341.64261	377.68018	-1494.48425	-659.41077	415.43420	-1282.38440				-675.31360	76.76550	-1269.11377	
86	0.850				-491.37366	1445.59070	-1188.96216							-304.00140	1280.30322	-1380.46667	-657.61725	1270.18713	-1461.64746							-227.02490	948.99164	-1373.47900				-274.45880	761.27771	-1286.53381	-752.65320	739.02960	-1379.25098	-392.39429	787.56378	-1321.02002							-345.55197	380.14108	-1482.51697	-661.81067	415.97787	-1274.51721				-676.72253	77.54012	-1262.84875	
87	0.860				-495.70059	1446.64600	-1183.00610							-307.82928	1281.32776	-1374.91602	-661.56555	1270.87817	-1455.71606	-504.25308	1157.64148	-1289.30994				-230.25290	949.40588	-1365.32849				-277.57513	762.10406	-1279.01086	-755.57855	740.16040	-1367.79724	-396.36945	788.28650	-1311.69373							-348.61929	381.79691	-1474.94788	-664.35681	416.49707	-1265.96741				-677.04291	76.17648	-1263.17883	
88	0.870				-499.97797	1447.88892	-1176.41248							-312.10861	1282.39258	-1368.50024	-665.29779	1271.66223	-1449.78369	-508.70688	1158.51257	-1281.89258				-233.23691	949.20667	-1354.81714				-280.79639	762.69012	-1272.59619	-759.15814	742.15540	-1361.34473	-403.04343	788.59662	-1302.93530							-350.98175	380.69934	-1469.04260	-667.72235	417.27930	-1259.87268	-322.82788	110.64040	-1666.45068	-677.72736	74.96672	-1262.59705	
89	0.880				-504.45010	1449.14697	-1170.46143							-316.43417	1282.45422	-1359.05591	-669.70892	1273.37366	-1444.66199	-513.56952	1160.32153	-1274.87451				-237.66196	951.88153	-1351.05054				-284.84555	765.15747	-1264.59351	-764.49707	742.95667	-1350.95520	-407.30908	790.27087	-1292.23169							-354.43356	381.90622	-1458.48999	-669.63092	416.53333	-1253.52502	-324.03659	113.55305	-1661.35779	-679.28894	76.02657	-1257.24036	
90	0.890				-508.57529	1450.66174	-1163.78577							-320.70236	1283.60571	-1352.29907	-673.79718	1274.41492	-1438.15234	-517.87695	1161.74438	-1267.81482				-241.79990	953.44257	-1344.44714	-660.08429	823.60608	-1327.01489	-288.74033	766.09497	-1257.31567	-768.54254	744.18359	-1342.88684	-412.18829	791.15985	-1283.74487							-356.70715	380.29691	-1452.67163	-673.05237	417.24219	-1247.64856	-326.49976	118.31535	-1649.64502	-679.92157	75.38028	-1256.03601	
91	0.900				-512.74988	1452.61804	-1157.58411							-324.89038	1284.97351	-1345.58655	-677.80066	1275.72803	-1431.97522	-522.52393	1163.74072	-1260.74060				-245.11168	955.33118	-1338.53333	-664.80005	826.40930	-1318.97388	-291.18634	766.81403	-1249.81543	-773.32587	746.33276	-1334.11938	-418.66077	792.50977	-1274.48364							-359.90460	382.46124	-1439.00977	-674.27582	415.57013	-1241.41809	-327.82645	121.56106	-1647.60559	-679.67987	73.15231	-1258.06848	
92	0.910	-636.18451	1485.82849	-1266.62488	-516.84583	1454.36340	-1151.19092							-329.47809	1286.90308	-1340.07275	-681.68005	1276.28577	-1423.90955	-527.86853	1165.81970	-1254.26868				-249.32637	955.70532	-1328.83838	-669.48969	826.63696	-1310.48950	-294.67432	769.92914	-1240.57153	-777.33954	748.41986	-1325.90271	-422.63895	794.21069	-1265.13403							-364.08801	381.81949	-1426.43909	-676.94958	416.03757	-1237.21814	-330.24219	127.04388	-1641.26807	-680.02069	72.44264	-1256.03320	
93	0.920	-639.65961	1487.86096	-1259.91614	-520.83813	1456.77820	-1145.33057							-333.56931	1288.83105	-1334.36963	-685.39771	1278.65149	-1419.57800	-532.14941	1167.83545	-1246.91736				-253.59351	957.51086	-1321.46631	-674.40808	826.56500	-1301.88477	-298.25958	771.17682	-1235.82861	-781.40289	750.10016	-1317.57288	-427.36478	795.01398	-1257.67029							-367.93781	383.41632	-1408.54993	-678.84198	415.46927	-1233.53894				-680.56818	71.68285	-1255.16357	
